<?xml version="1.0" encoding="iso-8859-1"?>
<!-- Uploaded to: SVG Repo, www.svgrepo.com, Generator: SVG Repo Mixer Tools -->
<svg height="800px" width="800px" version="1.1" id="Layer_1" xmlns="http://www.w3.org/2000/svg" xmlns:xlink="http://www.w3.org/1999/xlink" 
	 viewBox="0 0 233.733 233.733" xml:space="preserve">
<g>
	<path style="fill:#0071BC;" d="M226.252,79.388c7.792,45.376-26.309,83.969-70.723,85.619
		c-6.096,43.589-43.772,82.319-90.478,64.123c-43.36-16.913-62.61-69.439-31.305-106.886C3.725,94.376-6.359,42.583,27.972,13.432
		c34.422-29.197,78.102-6.096,101.615,24.522C168.226,19.62,218.094,31.858,226.252,79.388z M186.743,117.294
		c5.271-8.479,7.563-19.067,5.225-28.876c-5.5-23.376-29.059-34.101-50.097-25.163c2.75,11.78,4.675,23.697,6.508,35.659
		c0.275,1.696,4.171,24.613,4.492,35.843c0.596,0.275,1.1,0.733,1.329,1.238c1.238,2.704,15.905-3.025,20.213-5.821
		C179.363,126.965,183.672,122.244,186.743,117.294z M127.845,130.036c-1.283-8.571-2.567-17.096-3.896-25.667
		c-1.1-7.425-1.054-20.488-3.392-29.793c-6.463,6.096-13.567,11.734-20.121,17.234c-5.592,4.675-13.155,12.788-20.946,16.959
		c0,0.046,0,0.092,0,0.138c7.15,1.971,13.934,5.5,20.717,8.525C109.466,121.556,118.633,125.819,127.845,130.036z M126.699,165.741
		c0-0.046,0-0.092,0-0.138c-21.405-9.442-42.489-20.167-63.114-31.305c-2.704,0.413-5.454,1.329-8.204,2.613
		c-11.229,22.001-15.309,47.347,12.65,59.081c17.142,7.242,38.593,2.979,50.281-10.267c1.467-2.154,2.979-4.309,4.492-6.463
		C124.912,175.32,126.287,170.783,126.699,165.741z M105.295,53.446C97.457,45.287,89.711,35.571,78.711,32.5
		c-11.963-3.392-23.972,0.642-34.743,5.913c-17.784,18.792-5.363,41.068,5.729,59.86c8.25-8.296,19.663-14.942,28.188-21.726
		C87.052,69.259,95.807,60.642,105.295,53.446z"/>
</g>
</svg>